HIERARCHY
ROOT Hips
{
	OFFSET 0.000000 0.000000 0.000000
	CHANNELS 6 Xposition Yposition Zposition Zrotation Yrotation Xrotation 
	JOINT LHipJoint
	{
		OFFSET 0.000000 0.000000 0.000000
		CHANNELS 3 Zrotation Yrotation Xrotation
		JOINT LeftUpLeg
		{
			OFFSET 1.363060 -1.794630 0.839290
			CHANNELS 3 Zrotation Yrotation Xrotation
			JOINT LeftLeg
			{
				OFFSET 2.448110 -6.726130 0.000000
				CHANNELS 3 Zrotation Yrotation Xrotation
				JOINT LeftFoot
				{
					OFFSET 2.562200 -7.039590 0.000000
					CHANNELS 3 Zrotation Yrotation Xrotation
					JOINT LeftToeBase
					{
						OFFSET 0.157640 -0.433110 2.322550
						CHANNELS 3 Zrotation Yrotation Xrotation
						End Site
						{
							OFFSET 0.000000 0.000000 0.000000
						}
					}
				}
			}
		}
	}
	JOINT RHipJoint
	{
		OFFSET 0.000000 0.000000 0.000000
		CHANNELS 3 Zrotation Yrotation Xrotation
		JOINT RightUpLeg
		{
			OFFSET -1.305520 -1.794630 0.839290
			CHANNELS 3 Zrotation Yrotation Xrotation
			JOINT RightLeg
			{
				OFFSET -2.542530 -6.985550 0.000000
				CHANNELS 3 Zrotation Yrotation Xrotation
				JOINT RightFoot
				{
					OFFSET -2.568260 -7.056230 0.000000
					CHANNELS 3 Zrotation Yrotation Xrotation
					JOINT RightToeBase
					{
						OFFSET -0.164730 -0.452590 2.363150
						CHANNELS 3 Zrotation Yrotation Xrotation
						End Site
						{
							OFFSET 0.000000 0.000000 0.000000
						}
					}
				}
			}
		}
	}
	JOINT LowerBack
	{
		OFFSET 0.000000 0.000000 0.000000
		CHANNELS 3 Zrotation Yrotation Xrotation
		JOINT Spine
		{
			OFFSET 0.028270 2.035590 -0.193380
			CHANNELS 3 Zrotation Yrotation Xrotation
			JOINT Spine1
			{
				OFFSET 0.056720 2.048850 -0.042750
				CHANNELS 3 Zrotation Yrotation Xrotation
				JOINT Neck
				{
					OFFSET 0.000000 0.000000 0.000000
					CHANNELS 3 Zrotation Yrotation Xrotation
					JOINT Neck1
					{
						OFFSET -0.054170 1.746240 0.172020
						CHANNELS 3 Zrotation Yrotation Xrotation
						JOINT Head
						{
							OFFSET 0.104070 1.761360 -0.123970
							CHANNELS 3 Zrotation Yrotation Xrotation
							End Site
							{
								OFFSET 0.000000 0.000000 0.000000
							}
						}
					}
				}
				JOINT LeftShoulder
				{
					OFFSET 0.000000 0.000000 0.000000
					CHANNELS 3 Zrotation Yrotation Xrotation
					JOINT LeftArm
					{
						OFFSET 3.362410 1.200890 -0.311210
						CHANNELS 3 Zrotation Yrotation Xrotation
						JOINT LeftForeArm
						{
							OFFSET 4.983000 -0.000000 -0.000000
							CHANNELS 3 Zrotation Yrotation Xrotation
							JOINT LeftHand
							{
								OFFSET 3.483560 -0.000000 -0.000000
								CHANNELS 3 Zrotation Yrotation Xrotation
								JOINT LeftFingerBase
								{
									OFFSET 0.000000 0.000000 0.000000
									CHANNELS 3 Zrotation Yrotation Xrotation
									JOINT LeftHandIndex1
									{
										OFFSET 0.715260 -0.000000 -0.000000
										CHANNELS 3 Zrotation Yrotation Xrotation
										End Site
										{
											OFFSET 0.000000 0.000000 0.000000
										}
									}
								}
								JOINT LThumb
								{
									OFFSET 0.000000 0.000000 0.000000
									CHANNELS 3 Zrotation Yrotation Xrotation
									End Site
									{
										OFFSET 0.000000 0.000000 0.000000
									}
								}
							}
						}
					}
				}
				JOINT RightShoulder
				{
					OFFSET 0.000000 0.000000 0.000000
					CHANNELS 3 Zrotation Yrotation Xrotation
					JOINT RightArm
					{
						OFFSET -3.136600 1.374050 -0.404650
						CHANNELS 3 Zrotation Yrotation Xrotation
						JOINT RightForeArm
						{
							OFFSET -5.241900 -0.000000 -0.000000
							CHANNELS 3 Zrotation Yrotation Xrotation
							JOINT RightHand
							{
								OFFSET -3.444170 -0.000000 -0.000000
								CHANNELS 3 Zrotation Yrotation Xrotation
								JOINT RightFingerBase
								{
									OFFSET 0.000000 0.000000 0.000000
									CHANNELS 3 Zrotation Yrotation Xrotation
									JOINT RightHandIndex1
									{
										OFFSET -0.622530 -0.000000 -0.000000
										CHANNELS 3 Zrotation Yrotation Xrotation
										End Site
										{
											OFFSET 0.000000 0.000000 0.000000
										}
									}
								}
								JOINT RThumb
								{
									OFFSET 0.000000 0.000000 0.000000
									CHANNELS 3 Zrotation Yrotation Xrotation
									End Site
									{
										OFFSET 0.000000 0.000000 0.000000
									}
								}
							}
						}
					}
				}
			}
		}
	}
}
MOTION
Frames: 4
Frame Time: 0.016667
0.023614 18.307411 0.023614 -0.594519 -13.167847 3.434125 -2.283919 22.058818 5.106889 -19.353792 -3.373874 -12.908519 -7.492240 -6.424825 -23.416487 2.892251 16.939444 37.410058 0.000000 0.000000 0.000000 0.669532 -36.768924 -5.327057 49.171027 21.428717 -6.990363 -23.954883 8.230286 42.009974 -3.268579 16.849467 -21.322248 0.000000 0.000000 0.000000 0.101445 4.163521 6.100809 0.111268 3.395986 14.987585 -0.540314 4.148733 -14.164752 4.981875 -0.850693 -7.637295 -1.166826 -0.134248 0.288189 0.000000 0.000000 0.000000 -2.220941 14.514121 9.655043 -69.459175 -5.819711 8.520137 -168.373911 -89.618836 -179.801077 5.389518 -11.337032 0.094946 5.441001 -11.315866 0.000000 0.000000 0.000000 0.000000 0.000000 0.000000 0.000000 -2.282361 -11.262623 7.376082 64.133569 3.431836 21.828730 13.930945 80.028214 0.364470 -1.220801 11.571400 0.179819 -1.242487 11.573105 0.000000 0.000000 0.000000 0.000000 0.000000 0.000000 0.000000 
0.031526 18.336660 0.180812 -0.406502 -13.176010 3.393095 -1.981015 22.104397 4.999327 -19.936787 -3.310872 -12.477502 -7.328577 -6.102144 -22.302717 2.495530 15.981612 35.231105 0.000000 0.000000 0.000000 0.343156 -36.518061 -4.934625 48.386606 21.614791 -7.339881 -23.344464 7.826152 42.656122 -3.219669 16.818245 -21.990536 0.000000 0.000000 0.000000 0.336176 4.090922 5.622769 -0.618858 3.339594 15.795456 -0.348633 3.998645 -13.763429 5.257676 -0.859105 -8.128322 -1.178484 -0.127584 0.037852 0.000000 0.000000 0.000000 -1.620145 14.300527 9.369163 -69.633102 -6.364595 8.066975 -168.156528 -89.525973 -179.851881 5.734019 -11.564991 0.068773 5.795096 -11.539406 0.000000 0.000000 0.000000 0.000000 0.000000 0.000000 0.000000 -3.020380 -10.925721 7.511637 65.169227 4.078021 20.945118 15.708185 78.206136 0.383140 -1.024629 12.023479 0.189029 -1.046222 12.025867 0.000000 0.000000 0.000000 0.000000 0.000000 0.000000 0.000000 
0.041686 18.367729 0.337419 -0.226849 -13.170636 3.361804 -1.721410 22.135157 4.877536 -20.464938 -3.258172 -12.095824 -7.174545 -5.750600 -21.125384 2.141171 15.037599 33.084571 0.000000 0.000000 0.000000 0.040058 -36.232342 -4.528166 47.555805 21.802277 -7.729266 -22.727205 7.411656 43.259918 -3.162718 16.774407 -22.598067 0.000000 0.000000 0.000000 0.585341 4.014764 5.142933 -1.346925 3.287297 16.579736 -0.172731 3.842647 -13.356151 5.531429 -0.864496 -8.598440 -1.180952 -0.120121 -0.208711 0.000000 0.000000 0.000000 -1.002778 14.091568 9.086065 -69.783223 -6.900747 7.608579 -167.939952 -89.438096 -179.904687 6.083622 -11.786136 0.041537 6.154769 -11.755804 0.000000 0.000000 0.000000 0.000000 0.000000 0.000000 0.000000 -3.786454 -10.604603 7.631434 66.222243 4.749966 19.967518 17.525165 76.257270 0.402042 -0.818832 12.468709 0.198378 -0.839938 12.471795 0.000000 0.000000 0.000000 0.000000 0.000000 0.000000 0.000000 
0.052976 18.399401 0.491952 -0.162481 -12.821170 3.185722 -1.123315 22.274477 4.673648 -21.149039 -3.317096 -11.704460 -7.237358 -5.218152 -19.181536 1.755540 13.798011 30.496140 0.000000 0.000000 0.000000 -0.688124 -35.846135 -4.420533 46.821358 21.122901 -7.475840 -21.630082 6.634687 43.139490 -3.075159 16.761627 -23.543959 0.000000 0.000000 0.000000 0.819507 3.877016 4.994474 -1.635485 3.157645 17.161627 -0.270504 3.666506 -13.280050 5.670416 -0.846084 -8.854066 -1.084410 -0.108322 -0.306832 0.000000 0.000000 0.000000 -0.813754 14.029025 8.925846 -69.783501 -7.103712 7.518439 -167.821881 -89.410287 -179.910873 6.136092 -11.795665 0.038359 6.208249 -11.764721 0.000000 0.000000 0.000000 0.000000 0.000000 0.000000 0.000000 -4.261486 -10.592922 7.732587 66.944796 5.103728 19.216290 18.931505 74.640173 0.412773 -0.648466 12.726457 0.203732 -0.668624 12.730054 0.000000 0.000000 0.000000 0.000000 0.000000 0.000000 0.000000 
